<?xml version="1.0" encoding="utf-8"?>
<svg viewBox="0 0 200 45" height="45px" width="200px" id="svg2" version="1.1" xmlns="http://www.w3.org/2000/svg">
  <g transform="matrix(1.333333, 0, 0, -1.333333, -18.291397, 73.006561)" id="g10">
    <g transform="scale(0.1)" id="g12">
      <path id="path14" style="fill:#231f20;fill-opacity:1;fill-rule:nonzero;stroke:none" d="m 620.805,514.703 c 0.027,1.317 1.152,2.344 2.461,2.246 0.742,-0.058 1.394,-0.129 2.078,-0.129 3.301,-0.015 6.594,-0.175 9.863,-0.164 2.695,0.016 6.34,0.133 9.18,0.235 1.164,0.047 2.187,-0.786 2.375,-1.922 0.039,-0.25 0.066,-0.5 0.066,-0.742 0.059,-4.153 -0.183,-10.211 -0.125,-14.368 0.086,-5.793 -1.242,-81.621 -0.644,-84.476 1.171,-0.133 11.961,0.191 16.355,0.148 2.207,-0.031 32.109,-0.41 49.531,0.059 3.098,-0.176 7.903,-0.223 10.996,-0.543 0.508,-0.059 1.008,-0.246 1.485,-0.434 1.25,-0.468 1.847,-1.449 1.73,-2.843 -0.156,-1.719 -0.461,-3.438 -0.508,-5.157 -0.07,-3.117 0,-6.234 -0.031,-9.351 0,-1.196 -0.058,-2.403 -0.215,-3.598 -0.136,-0.961 -0.906,-1.441 -1.797,-1.629 -0.488,-0.105 -1.035,-0.047 -1.55,-0.047 -8.137,-0.011 -16.27,-0.16 -24.407,-0.011 -7.441,0.117 -55.281,0.058 -71.277,0.043 -3.312,0 -5.949,2.738 -5.832,6.043 0,0.175 0,0.339 0,0.48 -0.039,14.027 -0.059,29.656 -0.059,43.687 -0.027,18.86 -0.039,37.739 -0.039,56.614 0,4.355 0.266,10.57 0.364,15.859"/>
      <path id="path16" style="fill:#231f20;fill-opacity:1;fill-rule:nonzero;stroke:none" d="m 779.105,445.328 c -0.957,-4.746 -0.371,-23.887 0.918,-30.121 0.313,-0.144 0.606,-0.406 0.887,-0.418 10.215,-0.324 19.453,-0.105 29.68,0.109 8.992,0.176 17.051,0.016 26.055,0 6.054,0 12.175,-0.957 18.203,-0.156 1.824,0.246 2.695,-0.496 2.781,-2.203 0.266,-4.801 -0.176,-6.875 0.031,-11.676 0.028,-0.847 -0.039,-2.203 -0.176,-3.035 -0.461,-3.172 1.387,-5.824 -1.777,-5.851 -4.504,-0.047 -80.937,0.101 -87.863,-0.075 -4.129,-0.117 -8.27,0.043 -11.895,0.075 -1.719,1.121 -1.66,2.371 -1.679,3.582 -0.008,5.199 0.117,10.398 -0.028,15.586 -0.312,11.593 -0.812,24.046 -1.144,35.64 -0.118,3.981 0.011,7.953 0.039,11.93 0.019,0.699 0.09,1.387 0.09,2.082 0,10.387 0.066,20.773 -0.02,31.172 -0.051,6.746 -0.371,13.488 -0.547,20.246 -0.078,3.246 1.485,4.605 4.793,4.691 5.527,0.157 11.086,0.129 16.633,0.129 13.152,-0.015 59.687,-0.262 69.902,-0.422 2.938,-0.043 4.571,0.352 7.508,0.309 0.832,-0.016 2.422,0.086 3.762,0.086 0.828,-0.012 1.504,-0.629 1.59,-1.445 0.273,-2.766 -0.086,-11.797 0.234,-13.5 0.566,-2.989 0,-4.805 -0.82,-7.383 -1.563,-1.297 -3.164,-1.035 -4.707,-1.035 -5.703,0.031 -11.434,0.246 -17.137,0.101 -13.859,-0.336 -27.676,0.074 -41.543,-0.16 -4.152,-0.074 -9.25,-0.176 -13.418,-0.262 -0.305,-0.554 -0.773,-0.976 -0.773,-1.414 -0.039,-7.586 -0.039,-16.137 -0.039,-23.453 0.957,-1.305 2.062,-1.09 3.058,-1.078 8.66,0.16 48.75,-0.418 59.649,0.234 0.683,0.032 1.394,-0.011 2.05,-0.187 1.25,-0.332 2.11,-1.149 2.371,-2.477 0.11,-0.508 0.149,-1.035 0.149,-1.543 0.019,-4.804 0.027,-5.812 0,-10.59 0,-0.597 -0.031,-1.207 -0.098,-1.808 -0.383,-3.086 -1.32,-5.082 -4.074,-5.098 -8.133,-0.074 -16.277,-0.144 -24.422,-0.183 -11.418,-0.047 -22.851,-0.075 -34.289,-0.133 -1.336,0 -2.676,-0.176 -3.934,-0.266"/>
      <path id="path18" style="fill:#231f20;fill-opacity:1;fill-rule:nonzero;stroke:none" d="m 1112.6,465.301 c 4.67,0.144 9.3,-0.676 13.95,0.117 6.01,1 9.49,3.52 11.53,8.941 1.1,2.942 0.83,8.664 -0.65,11.36 -2.6,4.734 -6.08,6.496 -11.76,7.34 -1.7,0.265 -3.39,0.66 -5.11,0.73 -4.15,0.172 -8.31,0.277 -12.46,0.277 -9.85,-0.015 -19.71,-0.105 -29.56,-0.164 -2.42,-0.011 -4.86,0 -7.28,-0.097 -0.97,-0.059 -1.93,-0.41 -3.08,-0.657 -0.03,-9.511 0.16,-17.859 0.27,-27.488 1.15,-0.183 1.66,-0.332 2.18,-0.344 5.52,-0.191 11.05,-0.367 16.57,-0.515 1.21,-0.028 2.42,0.015 3.62,0.074 2.95,0.117 5.88,0.336 8.8,0.395 4.33,0.058 8.65,-0.086 12.98,0.031 z m 57.72,-73.34 c -2.6,0.043 -6.37,-0.102 -8.97,0 -5.49,0 -6.26,-0.219 -11.42,0 -0.76,0.027 -1.98,0.027 -2.73,0.016 -2.13,-0.09 -3.88,0.652 -5.13,2.371 -2.65,3.629 -5.39,8.144 -8.04,11.773 -6.74,9.188 -12.52,18.406 -19.23,27.625 -2.02,2.77 -3.99,5.567 -5.96,8.379 -5.64,0.148 -11.05,0.391 -15.72,0.332 -1.97,-0.012 -15.07,-0.059 -21.34,-0.086 -1.71,0 -3.1,-1.383 -3.1,-3.101 -0.02,-9.278 0.23,-36.196 0.41,-38.657 0.12,-1.894 0.27,-3.804 0.25,-5.707 -0.03,-2.433 0.03,-2.945 -1.76,-2.945 -1.36,-0.219 -18.14,0.219 -20.09,0 -3.02,-0.348 -4.12,0.769 -4.1,3.805 0.03,8.312 -0.06,68.308 0.07,77.836 0.07,4.515 -0.19,8.988 -0.59,13.484 -0.4,4.824 -0.18,9.687 -0.24,14.535 -0.04,3.805 -0.15,7.625 -0.13,11.422 0.01,2.566 0.66,3.965 3.24,3.906 1.9,-0.043 15.49,-0.043 21.69,-0.043 7.58,-0.437 45.52,0 58.18,0 8.59,0 17.72,-2.113 24.56,-7.578 7.68,-6.129 10.66,-16.996 11.77,-26.39 0.89,-7.618 -1.1,-14 -3.76,-20.989 -3.67,-9.656 -11.1,-14.711 -20.03,-17.316 3.63,-5.582 7.63,-10.899 11.67,-16.199 4.7,-6.192 7.86,-12.817 12.24,-19.227 2.75,-3.988 5.51,-7.953 8.27,-11.93 0.59,-0.843 1.24,-1.66 1.73,-2.562 0.78,-1.442 -0.14,-2.77 -1.74,-2.754"/>
      <path id="path20" style="fill:#231f20;fill-opacity:1;fill-rule:nonzero;stroke:none" d="m 1314.75,391.828 c -3.26,0 -17.73,0.031 -21.72,0 -2.07,-0.015 -3.42,1.82 -4.71,3.613 -9.93,13.766 -19.79,27.575 -30.41,40.832 -6.49,8.094 -26.75,36.063 -32.92,44.571 -0.57,0.812 -1.86,0.39 -1.84,-0.617 0.01,-6.7 0.74,-18.789 0.75,-20.141 0.17,-11.699 0.25,-23.379 0.4,-35.059 0.04,-3.644 0.13,-18.5 0.03,-21.269 -0.12,-3.453 -0.21,-6.906 -0.31,-10.469 -0.03,-0.644 -0.46,-1.211 -1.09,-1.344 -0.37,-0.074 -0.72,-0.117 -1.03,-0.117 -6.42,0.016 -12.77,-0.058 -19.17,0 -0.86,0.016 -1.75,-0.027 -2.6,0.086 -0.93,0.149 -1.66,0.832 -1.75,1.707 -0.12,1.527 -0.18,3.121 0.05,4.617 0.64,3.961 0.6,65.094 0.61,79.996 0,4.313 -0.52,8.637 -0.66,12.965 -0.17,6.289 -0.21,12.598 -0.29,18.891 0,0.785 0.14,1.558 0.31,2.316 0.51,2.211 -0.47,4.688 1.93,4.367 7.97,0 15.56,0.032 23.77,0 2.84,0.29 4.09,0.247 5.84,-2.113 2.18,-2.91 13.86,-17.898 16.09,-21.484 7.03,-11.289 34.23,-49.535 39.72,-56.207 1.29,-1.555 2.44,-5.242 4.59,-6.309 0.46,2.828 -0.01,19.215 -0.13,23.887 -0.18,6.933 -0.45,17.672 -0.51,24.605 -0.06,6.231 0.3,29.192 0.23,33.688 -0.01,1.019 0,2.039 0,3.238 0.61,0.242 1.23,0.695 1.83,0.695 6.59,0.047 13.18,0.047 19.77,0 1.98,-0.011 2.81,-0.683 3.28,-2.652 0.3,-1.324 -0.51,-26 -0.33,-36.207 0.12,-7.617 0.15,-15.25 0.21,-22.867 0.06,-6.676 0.05,-37.524 0.54,-44.078 0.43,-5.524 0.14,-12.059 0.13,-17.598 0,-0.465 -0.37,-0.926 -0.61,-1.543"/>
      <path id="path22" style="fill:#231f20;fill-opacity:1;fill-rule:nonzero;stroke:none" d="m 938.059,453.902 c 1.613,4.039 12.968,33.086 15.937,38.317 5.43,-14.614 32.129,-91.528 34.758,-97.555 0.809,-1.82 0.82,-2.523 2.762,-2.523 2.57,0 15.004,-0.102 20.554,-0.008 1.23,0.027 2.46,0.012 3.7,0.008 2.39,-0.024 4.24,0.297 3.29,2.394 -0.94,2.039 -1.99,4.617 -2.9,6.664 -3.38,7.582 -6.47,14.832 -9.46,22.625 -5.86,15.352 -12.098,28.328 -17.509,43.856 -2.839,8.164 -8.027,18.269 -10.828,26.465 -2.519,7.347 -5.879,14.398 -8.879,21.558 -0.066,0.16 -0.605,0.856 -1.043,1.379 -2.843,0 -5.382,0.098 -8.468,-0.019 -1.035,-0.04 -5.821,-0.04 -9.18,-0.016 l -0.008,0.058 c -1.894,0.067 -3.762,0.133 -5.703,-0.023 -1.379,-0.102 -2.648,0.133 -4.023,0 -1.731,-0.176 -3.176,-2.367 -3.946,-3.793 -0.5,-0.918 -9.211,-20.875 -11.172,-25.664 -3.214,-7.852 -23.398,-57.906 -30.878,-74.66 -2.532,-5.676 -4.649,-10.332 -6.868,-16.164 -1.347,-3.547 -0.742,-4.446 2.871,-4.602 3.293,-0.133 6.407,-0.023 9.7,-0.058 2.918,-0.039 9.832,-0.067 12.597,-0.028 0.664,0.004 1.239,0.391 1.524,0.981 3.406,7.441 21.609,56.894 23.172,60.808"/>
      <path id="path24" style="fill:#231f20;fill-opacity:1;fill-rule:nonzero;stroke:none" d="m 682.238,279.891 c -4.59,14.187 -13.25,34.734 -18.672,49.343 -2.988,-5.222 -14.336,-34.265 -15.945,-38.308 -1.562,-3.926 -1.855,-3.567 -4.414,-10.313 -0.234,-0.605 0.32,-1.25 0.957,-1.308 2.031,-0.188 35.399,-0.246 36.504,-0.059 l 1.055,-0.039 c 0.359,0 0.632,0.332 0.515,0.684 z m 43.106,-50.735 c -1.239,0.012 -2.481,0.012 -3.699,-0.019 -5.567,-0.078 -17.989,0.019 -20.567,0.019 -1.945,0 -1.953,0.703 -2.754,2.532 -2.629,6.015 -6.289,17.996 -9.094,23.953 -0.125,0.285 -0.41,0.519 -0.71,0.871 -1.75,0.73 -4.036,0.742 -5.911,0.683 -2.578,-0.058 -35.515,0.293 -38.933,0 -1.36,-0.117 -6.34,0.243 -7.793,0 -3.399,-7.265 -8.02,-19.648 -11.438,-27.082 -0.273,-0.593 -0.859,-0.976 -1.511,-0.984 -2.774,-0.051 -9.688,-0.02 -12.598,0.027 -3.293,0.039 -6.418,-0.078 -9.707,0.059 -3.613,0.156 -4.211,1.066 -2.871,4.601 2.215,5.829 4.324,10.489 6.875,16.172 7.48,16.746 27.644,66.797 30.867,74.649 1.965,4.804 10.676,24.746 11.172,25.664 0.773,1.445 2.219,3.621 3.945,3.797 1.367,0.136 2.656,-0.098 4.024,0 1.953,0.148 3.82,0.09 5.714,0.019 v -0.058 c 3.36,-0.02 8.133,-0.02 9.168,0.031 3.106,0.117 5.637,0.008 8.477,0.008 0.449,-0.516 0.977,-1.219 1.055,-1.368 3,-7.175 6.347,-14.226 8.879,-21.57 2.8,-8.183 7.988,-18.293 10.828,-26.465 5.402,-15.527 11.633,-28.488 17.5,-43.859 2.988,-7.793 6.074,-15.027 9.453,-22.617 0.918,-2.059 1.973,-4.617 2.902,-6.668 0.965,-2.102 -0.898,-2.414 -3.273,-2.395"/>
      <path id="path26" style="fill:#231f20;fill-opacity:1;fill-rule:nonzero;stroke:none" d="m 871.996,263.512 c -0.656,-1.407 -1.047,-2.801 -1.867,-3.926 -4.988,-6.875 -9.754,-13.914 -17.012,-18.965 -3.23,-2.254 -6.406,-4.531 -9.929,-6.387 -16.516,-8.66 -36.895,-9.461 -54.387,-3.621 -19.649,6.571 -34.774,19.883 -40.039,40.496 -0.117,0.461 -0.371,1.223 -0.547,1.672 -3.406,8.75 -3.68,17.832 -2.559,26.934 1.953,16.035 10.117,31.18 22.121,41.933 14.004,12.54 34.239,16.2 52.645,14.872 11.504,-0.821 21.848,-4.434 31.476,-10.575 2.579,-1.632 4.442,-3.73 6.836,-5.461 4.403,-3.183 8.094,-6.992 10.996,-11.511 1.602,-2.5 1.543,-3.555 -0.644,-5.461 -3.645,-3.172 -10.078,-9.012 -14.055,-12.422 -1.648,-1.414 -4.14,-1.121 -5.41,0.637 -1.875,2.597 -5.125,5.683 -7.019,7.273 -7.414,6.172 -13.633,10.148 -23.547,11.574 -40.567,5.801 -60.379,-38.761 -37.664,-64.199 4.394,-4.941 8.953,-8.391 15.086,-10.91 12.238,-5.039 24.132,-4.414 36.093,1.074 5.91,2.707 10.227,8.066 14.075,13.078 0.964,1.27 1.933,2.539 2.918,3.789 1.035,1.297 2.402,1.543 3.898,0.86 5.047,-2.344 9.59,-4.133 14.609,-6.582 1.61,-0.801 2.938,-2.043 3.926,-4.172"/>
      <path id="path28" style="fill:#231f20;fill-opacity:1;fill-rule:nonzero;stroke:none" d="m 972.68,279.891 c -4.59,14.187 -13.262,34.734 -18.672,49.343 -2.988,-5.222 -14.336,-34.265 -15.957,-38.308 -1.555,-3.926 -1.848,-3.567 -4.414,-10.313 -0.227,-0.605 0.32,-1.25 0.965,-1.308 2.023,-0.188 35.39,-0.246 36.503,-0.059 l 1.047,-0.039 c 0.36,0 0.645,0.332 0.528,0.684 z m 43.09,-50.735 c -1.25,0.012 -2.47,0.012 -3.7,-0.019 -5.55,-0.078 -17.984,0.019 -20.562,0.019 -1.934,0 -1.953,0.703 -2.754,2.532 -2.637,6.015 -6.289,17.996 -9.082,23.953 -0.137,0.285 -0.41,0.519 -0.715,0.871 -1.746,0.73 -4.043,0.742 -5.918,0.683 -2.578,-0.058 -35.508,0.293 -38.934,0 -1.359,-0.117 -6.339,0.243 -7.792,0 -3.391,-7.265 -8.008,-19.648 -11.438,-27.082 -0.273,-0.593 -0.859,-0.976 -1.512,-0.984 -2.765,-0.051 -9.687,-0.02 -12.597,0.027 -3.293,0.039 -6.407,-0.078 -9.7,0.059 -3.613,0.156 -4.207,1.066 -2.871,4.601 2.219,5.829 4.328,10.489 6.856,16.172 7.492,16.746 27.668,66.797 30.879,74.649 1.972,4.804 10.683,24.746 11.172,25.664 0.773,1.445 2.218,3.621 3.957,3.797 1.367,0.136 2.644,-0.098 4.011,0 1.953,0.148 3.821,0.09 5.715,0.019 v -0.058 c 3.367,-0.02 8.145,-0.02 9.18,0.031 3.094,0.117 5.633,0.008 8.476,0.008 0.45,-0.516 0.977,-1.219 1.043,-1.368 3,-7.175 6.348,-14.226 8.887,-21.57 2.793,-8.183 7.981,-18.293 10.82,-26.465 5.403,-15.527 11.639,-28.488 17.509,-43.859 2.99,-7.793 6.08,-15.027 9.46,-22.617 0.91,-2.059 1.96,-4.617 2.9,-6.668 0.95,-2.102 -0.91,-2.414 -3.29,-2.395"/>
      <path id="path30" style="fill:#231f20;fill-opacity:1;fill-rule:nonzero;stroke:none" d="m 1070.89,329.527 c -0.09,-1.601 -0.21,-3.113 -0.23,-4.648 -0.03,-8.652 0.17,-16.356 -0.1,-24.988 -0.41,-13.313 -0.31,-30.157 -0.11,-43.469 0.02,-0.977 0.27,-1.934 0.39,-2.957 0.98,-0.09 1.67,-0.207 2.34,-0.207 7.61,-0.039 15.22,-1.043 22.82,-0.996 2.6,0 5.18,0.215 7.78,0.402 3.44,0.234 6.89,0.527 10.32,0.801 8.03,0.644 13.81,3.191 19.47,9.707 7.73,8.894 10.73,19.121 10.22,30.711 -0.38,8.41 -3.61,16.926 -6.78,22.637 -2.8,5 -7.15,7.382 -11.85,10.371 -0.69,0.449 -1.6,0.656 -2.44,0.8 -3.92,0.676 -7.82,1.418 -11.77,1.875 -10.51,1.289 -21.06,1.028 -31.61,1.028 -2.76,0 -5.48,-0.449 -8.45,-1.067 z m -24.53,-98.894 c -0.2,1.043 -0.57,2.051 -0.57,3.035 -0.01,2.246 0.16,4.504 0.24,6.75 0.09,2.586 0.33,5.195 0.18,7.773 -0.75,12.637 -0.57,26.875 -0.62,39.52 0,5.363 -0.09,10.734 0.03,16.094 0.14,7.09 0.38,14.191 0.65,21.281 0.32,7.441 0.26,14.883 -0.56,22.305 -0.73,6.472 0.96,7.05 6.33,7.097 10.91,0.137 22.27,-0.195 33.17,-0.039 2.42,0.039 5.62,-0.117 8.04,0 9.74,0 11.03,0 21.03,-0.039 4.5,-0.312 15.12,-1.433 19.22,-3.465 7.19,-3.605 13.61,-8.222 19.06,-14.152 0.71,-0.75 1.42,-1.551 1.95,-2.43 3.06,-5.011 6.26,-9.933 8.64,-15.363 3.23,-7.402 4.89,-15.105 5.26,-23.133 0.07,-1.73 0.03,-3.469 0.15,-5.187 0.57,-8.621 -1.55,-16.856 -3.76,-25.039 -1.14,-4.207 -3.25,-8.028 -5.98,-11.446 -2.23,-2.851 -4.68,-5.566 -7.03,-8.328 -2.85,-3.34 -6.35,-7.402 -10.19,-9.512 -4.5,-2.492 -14.07,-6.398 -19.09,-6.835 -16.48,-1.485 -33.13,0.769 -49.66,0 -4.32,-0.207 -8.69,0.41 -13.01,0.222 -4.47,-0.195 -8.96,-0.672 -13.48,0.891"/>
      <path id="path32" style="fill:#231f20;fill-opacity:1;fill-rule:nonzero;stroke:none" d="m 1223.1,282.508 c -0.97,-4.746 -0.39,-23.887 0.92,-30.117 0.3,-0.149 0.59,-0.411 0.89,-0.422 10.2,-0.321 19.44,-0.106 29.66,0.117 9.01,0.176 17.06,0.012 26.06,0 6.06,0 12.18,-0.965 18.21,-0.164 1.82,0.254 2.7,-0.5 2.78,-2.199 0.26,-4.805 -0.17,-6.875 0.03,-11.68 0.03,-0.848 -0.05,-2.195 -0.17,-3.027 -0.47,-3.184 1.37,-5.828 -1.78,-5.86 -4.5,-0.047 -80.95,0.098 -87.86,-0.078 -4.14,-0.105 -8.27,0.051 -11.91,0.078 -1.71,1.125 -1.67,2.375 -1.67,3.586 -0.01,5.196 0.12,10.399 -0.02,15.586 -0.33,11.59 -0.82,24.043 -1.16,35.645 -0.11,3.972 0.01,7.949 0.04,11.922 0.02,0.703 0.09,1.386 0.09,2.082 0,10.39 0.08,20.769 -0.01,31.171 -0.06,6.747 -0.38,13.485 -0.56,20.243 -0.06,3.254 1.49,4.609 4.8,4.699 5.54,0.156 11.08,0.125 16.63,0.125 13.15,-0.008 59.7,-0.262 69.9,-0.418 2.94,-0.051 4.57,0.351 7.52,0.301 0.83,-0.008 2.43,0.09 3.77,0.09 0.82,-0.012 1.49,-0.625 1.57,-1.446 0.28,-2.765 -0.08,-11.797 0.24,-13.496 0.56,-2.988 0,-4.805 -0.82,-7.383 -1.56,-1.3 -3.16,-1.035 -4.7,-1.035 -5.71,0.027 -11.44,0.242 -17.15,0.098 -13.85,-0.332 -27.67,0.078 -41.54,-0.156 -4.15,-0.079 -9.25,-0.176 -13.41,-0.266 -0.31,-0.555 -0.77,-0.977 -0.77,-1.414 -0.05,-7.59 -0.05,-16.133 -0.05,-23.449 0.97,-1.309 2.07,-1.094 3.06,-1.075 8.67,0.157 48.75,-0.429 59.65,0.227 0.68,0.027 1.39,-0.012 2.05,-0.188 1.26,-0.332 2.12,-1.152 2.38,-2.48 0.1,-0.508 0.14,-1.023 0.14,-1.543 0.02,-4.805 0.02,-5.809 0,-10.586 0,-0.594 -0.03,-1.211 -0.1,-1.805 -0.38,-3.086 -1.31,-5.078 -4.06,-5.097 -8.15,-0.071 -16.29,-0.149 -24.43,-0.188 -11.42,-0.047 -22.86,-0.078 -34.29,-0.136 -1.34,0 -2.68,-0.176 -3.93,-0.262"/>
      <path id="path34" style="fill:#231f20;fill-opacity:1;fill-rule:nonzero;stroke:none" d="m 1397.06,229.012 c -1.7,0.918 -2.13,2.488 -2.52,3.965 -2.78,10.378 -8.43,22.605 -11.93,32.742 -3.83,11.125 -7.09,22.441 -10.67,33.644 -2.42,7.586 -4.93,15.137 -7.51,22.664 -0.49,1.399 -0.61,3.118 -2.45,4.094 0.11,-2.187 0.05,-44.961 0.23,-52.402 0.07,-3.125 0.21,-6.242 0.22,-9.356 0.05,-10.226 0.05,-21.445 0.07,-31.672 0,-0.175 0.01,-0.339 0.01,-0.515 -0.07,-2.395 -0.15,-3.137 -2.4,-3.164 -4.11,0 -18.29,0 -21.06,0 -1.41,0.176 -1.26,1.746 -1.32,3.281 -0.03,0.508 0.56,15 0.51,21.219 -0.12,12.812 -0.53,25.636 -0.63,38.437 -0.11,13.34 -0.06,26.68 0.03,40.031 0.03,3.973 0.48,7.93 0.6,11.915 0.03,2.058 -0.29,4.128 -0.36,6.218 -0.05,1.641 1.31,3.899 2.88,3.84 9.68,-0.332 28.72,0 34.79,0.02 1.12,0.007 2.11,-0.676 2.52,-1.719 2.94,-7.695 14.35,-39.258 19.7,-54.797 2.46,-7.195 4.9,-20.137 7.41,-27.312 0.62,-1.778 1.49,-3.469 2.47,-5.715 0.67,1.406 1.2,2.246 1.49,3.164 2.61,8.625 21.51,60.695 23.71,67.988 1.49,4.973 3.42,9.797 4.94,14.758 0.73,2.422 0.79,3.379 3,3.515 2.94,0.157 5.53,0.086 8.48,0.098 9.17,0.059 16.45,-0.039 25.64,0 0.5,0 1.18,0.086 1.58,-0.148 0.55,-0.282 0.99,-0.625 1.3,-1.16 0.21,-0.411 0.11,-1.016 0.12,-1.536 0.03,-18.015 0.56,-113.925 0.29,-118.3 -0.08,-1.043 -0.27,-2.118 -0.83,-3.243 -0.47,-0.144 -1.1,-0.527 -1.72,-0.527 -5.72,-0.039 -10.48,-0.027 -16.2,-0.027 -1.04,0 -2.08,0.058 -3.12,0.125 -1.18,0.09 -1.93,0.832 -2.22,1.886 -0.28,1.161 -0.44,2.383 -0.48,3.594 -0.23,8.016 0.34,69.434 0.3,88.953 0,0.93 -1.34,1.035 -1.5,0.129 -0.22,-1.172 -0.4,-2.168 -0.54,-2.558 -1.37,-3.731 -2.62,-7.52 -3.98,-11.262 -3.9,-10.723 -7.67,-21.512 -11.82,-32.149 -5.35,-13.718 -10.79,-30.027 -15.02,-44.121 -0.04,-0.156 -0.16,-0.312 -0.18,-0.476 -1.58,-4.738 -1.01,-4.121 -4.65,-4.121 -1.66,0 -13.48,0.926 -19.18,0"/>
      <path id="path36" style="fill:#231f20;fill-opacity:1;fill-rule:nonzero;stroke:none" d="m 1503.8,353.914 c 6.09,0.008 24.02,0.027 27.8,0 0.4,0 0.78,-0.207 1,-0.559 10.74,-16.472 22.2,-33.933 33.02,-49.519 1.67,0 1.98,0.898 2.42,1.57 6.83,10.43 30.99,48.508 31.72,48.508 7,0 24.69,0 26.2,0 2,0 3.04,-0.285 1.89,-1.887 -0.42,-0.566 -13.95,-19.422 -18.19,-26.355 -2.84,-4.621 -5.94,-9.074 -9.28,-13.359 -7.61,-9.817 -12.71,-20.684 -19.65,-30.95 -0.91,-1.347 -1.42,-2.722 -1.35,-4.375 0.28,-7.441 0.66,-14.871 0.85,-22.312 0.15,-6.574 0.2,-15.676 0.27,-22.238 0,-0.516 -0.04,-1.766 -0.15,-2.274 -0.24,-1.008 -0.3,-1.055 -1.34,-1.152 -0.34,-0.032 -1.63,-0.039 -1.99,-0.039 -5.36,0.007 -10.84,0.007 -16.21,0.039 -1.21,0.019 -2.75,-0.039 -4.21,-0.039 -0.93,0.125 -1.03,1.074 -1.14,1.961 -0.23,1.875 -0.39,3.789 -0.37,5.683 0.07,11.77 -0.8,27.961 -0.63,39.727 0.05,2.101 -0.58,4.16 -1.78,5.879 -4.7,6.828 -30.97,43.507 -33.94,47.121 -5.63,6.816 -10.47,14.199 -15.3,21.582 -0.08,0.117 -0.37,0.594 -0.68,1.133 -0.49,0.82 0.1,1.855 1.04,1.855"/>
      <path id="path38" style="fill:#231f20;fill-opacity:1;fill-rule:nonzero;stroke:none" d="m 244.66,243.543 -80.594,108.27 84.539,164.492 41.68,-0.578 -78.867,-153.649 c -1.758,-3.43 -1.387,-7.558 0.937,-10.625 L 294.23,243.836 Z m 301.133,-7.324 -98.203,295.109 c 0,0.024 -0.02,0.031 -0.02,0.051 -0.261,0.785 -0.625,1.547 -1.093,2.262 -0.059,0.086 -0.137,0.144 -0.196,0.234 -0.176,0.246 -0.39,0.453 -0.574,0.684 -0.422,0.496 -0.871,0.953 -1.367,1.355 -0.254,0.207 -0.508,0.387 -0.781,0.566 -0.547,0.36 -1.114,0.645 -1.711,0.891 -0.274,0.113 -0.528,0.234 -0.809,0.32 -0.898,0.282 -1.828,0.469 -2.793,0.485 l -63.117,0.883 c -0.039,0 -0.086,0 -0.137,0 -1.211,0 -2.351,-0.282 -3.445,-0.688 -0.313,-0.117 -0.598,-0.258 -0.899,-0.406 -0.793,-0.391 -1.515,-0.867 -2.179,-1.449 -0.215,-0.192 -0.449,-0.348 -0.653,-0.555 -0.742,-0.777 -1.406,-1.641 -1.875,-2.652 l -80,-170.664 c -2.343,-5 -0.187,-10.957 4.813,-13.301 1.367,-0.645 2.812,-0.949 4.23,-0.949 3.758,0 7.364,2.128 9.063,5.753 l 77.254,164.825 41.797,-0.586 -22.91,-54.196 c -0.008,0 -0.008,-0.003 -0.008,-0.003 l -13.028,-30.797 c 0,-0.004 0,-0.004 0,-0.008 L 311.41,254.305 232.094,358.543 315.441,520.934 c 1.575,3.082 1.446,6.757 -0.332,9.722 -1.777,2.965 -4.968,4.797 -8.425,4.848 l -64.004,0.887 c -4.102,-0.036 -7.297,-2.051 -9.035,-5.43 L 143.43,355.406 c -1.746,-3.386 -1.407,-7.48 0.871,-10.535 l 87.332,-117.336 c 1.894,-2.539 4.863,-4.031 8.027,-4.031 0.02,0 0.039,0 0.059,0 l 74.668,0.449 c 3.789,0.02 7.226,2.188 8.906,5.586 0.578,1.172 0.82,2.43 0.918,3.691 l 81.359,192.352 c 0,0.008 0,0.008 0,0.012 l 13.035,30.797 c 0,0.004 0,0.004 0,0.007 l 18.379,43.469 85.45,-256.804 h -49.317 l -34.316,115.519 c -1.571,5.293 -7.149,8.289 -12.442,6.738 -5.293,-1.582 -8.3,-7.148 -6.738,-12.441 l 36.445,-122.668 c 1.262,-4.238 5.157,-7.148 9.59,-7.148 h 70.645 c 3.215,0 6.242,1.542 8.117,4.152 1.883,2.605 2.391,5.957 1.375,9.004"/>
    </g>
  </g>
</svg>